<svg width="48" height="49" viewBox="0 0 48 49" fill="none" xmlns="http://www.w3.org/2000/svg">
<g filter="url(#filter0_d_8_55)">
<path d="M23.625 8.4375H16.125M34.875 11.25V30C34.875 37.5 33 39.375 25.5 39.375H14.25C6.75 39.375 4.875 37.5 4.875 30V11.25C4.875 3.75 6.75 1.875 14.25 1.875H25.5C33 1.875 34.875 3.75 34.875 11.25Z" stroke="#2C3333" stroke-width="1.5" stroke-linecap="round" stroke-linejoin="round"/>
<path d="M19.875 33.9375C20.6458 33.9375 21.385 33.6313 21.93 33.0863C22.4751 32.5413 22.7813 31.802 22.7813 31.0312C22.7813 30.2605 22.4751 29.5212 21.93 28.9762C21.385 28.4312 20.6458 28.125 19.875 28.125C19.1042 28.125 18.365 28.4312 17.82 28.9762C17.2749 29.5212 16.9688 30.2605 16.9688 31.0312C16.9688 31.802 17.2749 32.5413 17.82 33.0863C18.365 33.6313 19.1042 33.9375 19.875 33.9375Z" stroke="#2C3333" stroke-width="1.5" stroke-linecap="round" stroke-linejoin="round"/>
</g>
<defs>
<filter id="filter0_d_8_55" x="-1" y="0" width="53" height="53" filterUnits="userSpaceOnUse" color-interpolation-filters="sRGB">
<feFlood flood-opacity="0" result="BackgroundImageFix"/>
<feColorMatrix in="SourceAlpha" type="matrix" values="0 0 0 0 0 0 0 0 0 0 0 0 0 0 0 0 0 0 127 0" result="hardAlpha"/>
<feOffset dy="4"/>
<feGaussianBlur stdDeviation="2"/>
<feComposite in2="hardAlpha" operator="out"/>
<feColorMatrix type="matrix" values="0 0 0 0 0 0 0 0 0 0 0 0 0 0 0 0 0 0 0.25 0"/>
<feBlend mode="normal" in2="BackgroundImageFix" result="effect1_dropShadow_8_55"/>
<feBlend mode="normal" in="SourceGraphic" in2="effect1_dropShadow_8_55" result="shape"/>
</filter>
</defs>
</svg>
